<?xml version="1.0" encoding="utf-8"?>
<!-- Generator: Adobe Illustrator 21.0.0, SVG Export Plug-In . SVG Version: 6.00 Build 0)  -->
<svg version="1.1" id="Layer_1" xmlns="http://www.w3.org/2000/svg" xmlns:xlink="http://www.w3.org/1999/xlink" x="0px" y="0px"
	 viewBox="0 0 24 24" style="enable-background:new 0 0 24 24;" xml:space="preserve">
<style type="text/css">
	.st0{fill:#FFFFFF;}
</style>
<path class="st0" d="M9.7,8.3c0.4,0.4,0.4,1,0,1.4C9.5,9.9,9.3,10,9,10S8.5,9.9,8.3,9.7L4,5.4V9c0,0.6-0.4,1-1,1S2,9.6,2,9V3
	c0-0.1,0-0.3,0.1-0.4c0.1-0.2,0.3-0.4,0.5-0.5C2.7,2,2.9,2,3,2h6c0.6,0,1,0.4,1,1S9.6,4,9,4H5.4L9.7,8.3z M21.9,2.6
	c-0.1-0.2-0.3-0.4-0.5-0.5C21.3,2,21.1,2,21,2h-6c-0.6,0-1,0.4-1,1s0.4,1,1,1h3.6l-4.3,4.3c-0.4,0.4-0.4,1,0,1.4
	C14.5,9.9,14.7,10,15,10s0.5-0.1,0.7-0.3L20,5.4V9c0,0.6,0.4,1,1,1s1-0.4,1-1V3C22,2.9,22,2.7,21.9,2.6z M22,15c0-0.6-0.4-1-1-1
	s-1,0.4-1,1v3.6l-4.3-4.3c-0.4-0.4-1-0.4-1.4,0s-0.4,1,0,1.4l4.3,4.3H15c-0.6,0-1,0.4-1,1s0.4,1,1,1h6c0.1,0,0.3,0,0.4-0.1
	c0.2-0.1,0.4-0.3,0.5-0.5C22,21.3,22,21.1,22,21V15z M9,20H5.4l4.3-4.3c0.4-0.4,0.4-1,0-1.4s-1-0.4-1.4,0L4,18.6V15c0-0.6-0.4-1-1-1
	s-1,0.4-1,1v6c0,0.1,0,0.3,0.1,0.4c0.1,0.2,0.3,0.4,0.5,0.5C2.7,22,2.9,22,3,22h6c0.6,0,1-0.4,1-1S9.6,20,9,20z"/>
</svg>
