<?xml version="1.0" encoding="UTF-8"?>
<svg width="250px" height="250px" viewBox="0 0 250 250" version="1.1" xmlns="http://www.w3.org/2000/svg" xmlns:xlink="http://www.w3.org/1999/xlink">
    <title>stop</title>
    <g id="stop" stroke="none" stroke-width="1" fill="none" fill-rule="evenodd" transform="translate(0.000000, -0.000000)">
        <path d="M196.333333,88.75 L53.6666667,88.75 C51.8717412,88.75 50.4166667,90.2050746 50.4166667,92 L50.4166667,196.333333 C50.4166667,198.128259 51.8717412,199.583333 53.6666667,199.583333 L196.333333,199.583333 C198.128259,199.583333 199.583333,198.128259 199.583333,196.333333 L199.583333,92 C199.583333,90.2050746 198.128259,88.75 196.333333,88.75 Z M53.6666667,91.25 L196.333333,91.25 C196.747547,91.25 197.083333,91.5857864 197.083333,92 L197.083333,196.333333 C197.083333,196.747547 196.747547,197.083333 196.333333,197.083333 L53.6666667,197.083333 C53.2524531,197.083333 52.9166667,196.747547 52.9166667,196.333333 L52.9166667,92 C52.9166667,91.5857864 53.2524531,91.25 53.6666667,91.25 Z" id="Rectangle" fill="#007F9C" fill-rule="nonzero" transform="translate(125.000000, 144.166667) rotate(-5.000000) translate(-125.000000, -144.166667) "></path>
        <path d="M162.592903,187.729302 L66.307002,196.146564 C65.2066357,196.242834 64.2365707,195.428853 64.1403011,194.328486 L57.0439341,113.267805 C83.6300738,147.720584 120.280981,174.009001 162.592903,187.729302 Z" id="Rectangle-4" fill="#E3EEEE"></path>
        <path d="M123.950984,110.028395 C142.360476,110.028395 157.284317,124.952237 157.284317,143.361728 C157.284317,161.77122 142.360476,176.695062 123.950984,176.695062 C105.541492,176.695062 90.6176508,161.77122 90.6176508,143.361728 C90.6176508,124.952237 105.541492,110.028395 123.950984,110.028395 Z M145.093955,130.197979 L112.052098,163.240097 C115.620136,165.317717 119.768622,166.507774 124.195062,166.507774 C137.541943,166.507774 148.361728,155.687989 148.361728,142.341108 C148.361728,137.9146 147.171634,133.766054 145.093955,130.197979 Z M124.195062,118.174441 C110.84818,118.174441 100.028395,128.994226 100.028395,142.341108 C100.028395,146.752211 101.210221,150.887283 103.274509,154.446963 L136.300967,121.420584 C132.741276,119.356278 128.606185,118.174441 124.195062,118.174441 Z" id="Oval-3" fill="#E3EEEE" transform="translate(123.950984, 143.361728) rotate(-15.000000) translate(-123.950984, -143.361728) "></path>
        <path d="M132.724243,175.519503 L132.578286,175.559256 L132.578286,175.559256 C114.796082,180.323983 96.5181836,169.771233 91.7534566,151.98903 C91.4305636,150.783977 91.1780149,149.576648 90.9932932,148.371402 C103.764065,158.92757 117.755417,168.057733 132.724243,175.519503 Z" id="Combined-Shape" fill="#CFE1E0"></path>
        <path d="M142.36128,123.574258 L143.512971,124.717543 C146.775413,127.956176 149.139766,132.001955 150.355553,136.539333 C154.107775,150.542819 145.797485,164.936664 131.794,168.688886 C127.430484,169.858087 122.929592,169.880043 118.645766,168.807368 L118.132772,168.673397 L116.566845,168.247524 L142.36128,123.574258 Z M142.873,127.686 L120.384,166.635 L120.812316,166.717367 C123.850656,167.263931 126.980811,167.212071 130.05672,166.539258 L130.632781,166.405824 L131.146952,166.274072 C143.816772,162.879204 151.335606,149.856201 147.940738,137.186381 C147.064873,133.917606 145.532343,130.933748 143.455833,128.375127 L143.104731,127.952652 L142.873,127.686 Z M118.206,117.97778 C122.372685,116.86132 126.665776,116.790451 130.778582,117.722071 L131.313987,117.849268 L132.924859,118.249853 L107.238013,162.736846 L106.085752,161.541994 C103.028546,158.371784 100.80927,154.474511 99.6444471,150.127333 C95.9297467,136.263883 104.037515,122.017841 117.78761,118.093529 L118.206,117.97778 Z M128.677981,119.863412 C125.437523,119.353457 122.104623,119.521338 118.853048,120.392595 C106.183228,123.787463 98.6643936,136.810466 102.059262,149.480286 C102.889206,152.577681 104.308791,155.419859 106.223804,157.887783 L106.566872,158.319389 L106.764,158.557 L129.068,119.929 L128.677981,119.863412 Z" id="Shape" fill="#007F9C" fill-rule="nonzero"></path>
        <path d="M136.467771,107.187692 C137.125613,107.397062 137.48917,108.100077 137.279799,108.757918 C137.070429,109.415759 136.367415,109.779317 135.709573,109.569946 C129.313325,107.534217 122.461751,107.347424 115.833492,109.12346 C96.939901,114.185983 85.7276045,133.60625 90.790127,152.499841 C95.8526495,171.393432 115.272917,182.605729 134.166508,177.543206 C153.060099,172.480684 164.272396,153.060417 159.209873,134.166825 C157.783495,128.84351 155.188262,124.022083 151.631795,119.973822 C151.17616,119.455181 151.227237,118.665375 151.745877,118.20974 C152.264518,117.754105 153.054324,117.805181 153.509959,118.323822 C157.318613,122.659143 160.098314,127.823276 161.624688,133.519778 C167.044565,153.747034 155.040812,174.538144 134.813555,179.958021 C114.586299,185.377898 93.7951894,173.374145 88.3753124,153.146889 C82.9554354,132.919632 94.9591881,112.128523 115.186445,106.708646 C122.280068,104.807915 129.619195,105.008001 136.467771,107.187692 Z M142.845718,109.878682 C145.081446,111.071864 147.193836,112.485498 149.148773,114.09758 C149.681394,114.536791 149.757118,115.324616 149.317907,115.857237 C148.878697,116.389858 148.090871,116.465582 147.55825,116.026372 C145.731675,114.520139 143.757797,113.199199 141.668638,112.084239 C141.05959,111.759197 140.829358,111.001968 141.154399,110.39292 C141.479441,109.783873 142.23667,109.55364 142.845718,109.878682 Z" id="Shape" fill="#007F9C" fill-rule="nonzero"></path>
        <path d="M126.660733,38.8864524 C127.714392,40.379147 128.333333,42.2006261 128.333333,44.1666667 C128.333333,49.2292769 124.229277,53.3333333 119.166667,53.3333333 C114.104056,53.3333333 110,49.2292769 110,44.1666667 C110,42.2010724 110.61866,40.379974 111.671883,38.887469 C111.668376,38.9801617 111.666667,39.0732146 111.666667,39.1666667 C111.666667,43.3088023 115.024531,46.6666667 119.166667,46.6666667 C123.308802,46.6666667 126.666667,43.3088023 126.666667,39.1666667 L126.662813,38.9239356 L126.662813,38.9239356 Z" id="Oval-4" fill="#E3EEEE"></path>
        <path d="M67.5049385,75.5922326 C67.8905905,76.1084076 67.8175448,76.825156 67.3564456,77.2543741 L67.2517248,77.3417705 L60.7754281,82.1804332 C60.2223835,82.5936317 59.4390887,82.480264 59.0258902,81.9272194 C58.6402383,81.4110445 58.713284,80.694296 59.1743831,80.265078 L59.2791039,80.1776816 L65.7554006,75.3390189 C66.3084452,74.9258204 67.09174,75.039188 67.5049385,75.5922326 Z M132.946721,46.5941654 L133.060724,46.6690514 L178.532902,80.1727148 C179.088689,80.5822163 179.207278,81.3647377 178.797776,81.9205253 C178.415575,82.4392604 177.708432,82.5771464 177.163969,82.2602859 L177.049966,82.1853999 L131.577788,48.6817365 C131.022001,48.2722351 130.903412,47.4897137 131.312914,46.933926 C131.667815,46.4522434 132.302896,46.298946 132.827738,46.5332002 L132.946721,46.5941654 Z M114.409601,40.548156 C114.795253,41.064331 114.722207,41.7810794 114.261108,42.2102975 L114.156387,42.2976939 L71.9691247,73.8172398 C71.4160801,74.2304383 70.6327853,74.1170707 70.2195868,73.5640261 C69.8339349,73.0478511 69.9069805,72.3311027 70.3680797,71.9018846 L70.4728005,71.8144882 L112.660063,40.2949423 C113.213107,39.8817438 113.996402,39.9951114 114.409601,40.548156 Z" id="Shape" fill="#B1D8D5" fill-rule="nonzero" transform="translate(118.909353, 61.237691) rotate(-5.000000) translate(-118.909353, -61.237691) "></path>
        <path d="M119.166667,30.4166667 C114.334175,30.4166667 110.416667,34.3341751 110.416667,39.1666667 C110.416667,43.9991582 114.334175,47.9166667 119.166667,47.9166667 C123.999158,47.9166667 127.916667,43.9991582 127.916667,39.1666667 C127.916667,34.3341751 123.999158,30.4166667 119.166667,30.4166667 Z M119.166667,32.9166667 C122.618446,32.9166667 125.416667,35.714887 125.416667,39.1666667 C125.416667,42.6184464 122.618446,45.4166667 119.166667,45.4166667 C115.714887,45.4166667 112.916667,42.6184464 112.916667,39.1666667 C112.916667,35.714887 115.714887,32.9166667 119.166667,32.9166667 Z" id="Oval" fill="#007F9C" fill-rule="nonzero"></path>
    </g>
</svg>