<?xml version="1.0" encoding="UTF-8"?>
<svg width="250px" height="250px" viewBox="0 0 250 250" version="1.1" xmlns="http://www.w3.org/2000/svg" xmlns:xlink="http://www.w3.org/1999/xlink">
    <title>clipboard</title>
    <g id="clipboard" stroke="none" stroke-width="1" fill="none" fill-rule="evenodd">
        <path d="M91.6149815,55.965672 C92.3053374,55.965672 92.8649815,56.5253161 92.8649815,57.215672 C92.8649815,57.8628807 92.3731068,58.3952059 91.7427867,58.4592184 L91.6149815,58.465672 L76.4439112,58.465672 C74.439652,58.465672 72.8026375,60.0380331 72.6991092,62.0165135 L72.6939112,62.215672 L72.6939112,187.881604 C72.6939112,189.885863 74.2662722,191.522878 76.2447526,191.626406 L76.4439112,191.631604 L173.839286,191.631604 C175.843545,191.631604 177.480559,190.059243 177.584088,188.080762 L177.589286,187.881604 L177.589286,62.215672 C177.589286,60.2114129 176.016925,58.5743983 174.038444,58.47087 L173.839286,58.465672 L158.665238,58.465672 C157.974882,58.465672 157.415238,57.906028 157.415238,57.215672 C157.415238,56.5684633 157.907112,56.0361381 158.537433,55.9721256 L158.665238,55.965672 L173.839286,55.965672 C177.214359,55.965672 179.964598,58.6409088 180.085164,61.9865452 L180.089286,62.215672 L180.089286,187.881604 C180.089286,191.256677 177.414049,194.006916 174.068413,194.127482 L173.839286,194.131604 L76.4439112,194.131604 C73.0688377,194.131604 70.3185993,191.456367 70.1980332,188.110731 L70.1939112,187.881604 L70.1939112,62.215672 C70.1939112,58.8405986 72.869148,56.0903601 76.2147843,55.969794 L76.4439112,55.965672 L91.6149815,55.965672 Z" id="Path" fill="#007F9C" fill-rule="nonzero"></path>
        <path d="M94.9998773,64.1293333 L95,65.6666667 C95,68.9803752 97.6862915,71.6666667 101,71.6666667 L101,71.6666667 L113.444133,71.6673168 C115.209736,111.430175 137.926665,145.745658 170.823506,163.842351 L170.825661,183.796013 C170.825661,184.900582 169.93023,185.796013 168.825661,185.796013 L79.3598773,185.796013 C78.2553078,185.796013 77.3598773,184.900582 77.3598773,183.796013 L77.3598773,66.1293463 C77.3598773,65.0247768 78.2553078,64.1293463 79.3598773,64.1293463 L94.9998773,64.1293333 Z" id="Rectangle-2" fill="#E3EEEE"></path>
        <path d="M161.119792,92.0833333 C161.810148,92.0833333 162.369792,92.6429774 162.369792,93.3333333 C162.369792,93.980542 161.877917,94.5128672 161.247597,94.5768797 L161.119792,94.5833333 L106.786458,94.5833333 C106.096102,94.5833333 105.536458,94.0236893 105.536458,93.3333333 C105.536458,92.6861246 106.028333,92.1537994 106.658653,92.0897869 L106.786458,92.0833333 L161.119792,92.0833333 Z" id="Line" fill="#B1D8D5" fill-rule="nonzero"></path>
        <path d="M98.1000952,86.25 L86.7864583,86.25 C86.0961024,86.25 85.5364583,86.8096441 85.5364583,87.5 L85.5364583,98.8136369 C85.5364583,99.5039928 86.0961024,100.063637 86.7864583,100.063637 L98.1000952,100.063637 C98.7904512,100.063637 99.3500952,99.5039928 99.3500952,98.8136369 L99.3500952,87.5 C99.3500952,86.8096441 98.7904512,86.25 98.1000952,86.25 Z M96.85,88.75 L96.85,97.563 L88.036,97.563 L88.036,88.75 L96.85,88.75 Z" id="Rectangle" fill="#B1D8D5" fill-rule="nonzero"></path>
        <path d="M98.1000952,107.5 L86.7864583,107.5 C86.0961024,107.5 85.5364583,108.059644 85.5364583,108.75 L85.5364583,120.063637 C85.5364583,120.753993 86.0961024,121.313637 86.7864583,121.313637 L98.1000952,121.313637 C98.7904512,121.313637 99.3500952,120.753993 99.3500952,120.063637 L99.3500952,108.75 C99.3500952,108.059644 98.7904512,107.5 98.1000952,107.5 Z M96.85,109.999 L96.85,118.813 L88.036,118.813 L88.036,109.999 L96.85,109.999 Z" id="Rectangle" fill="#B1D8D5" fill-rule="nonzero"></path>
        <path d="M98.1000952,128.75 L86.7864583,128.75 C86.0961024,128.75 85.5364583,129.309644 85.5364583,130 L85.5364583,141.313637 C85.5364583,142.003993 86.0961024,142.563637 86.7864583,142.563637 L98.1000952,142.563637 C98.7904512,142.563637 99.3500952,142.003993 99.3500952,141.313637 L99.3500952,130 C99.3500952,129.309644 98.7904512,128.75 98.1000952,128.75 Z M96.85,131.249 L96.85,140.063 L88.036,140.063 L88.036,131.249 L96.85,131.249 Z" id="Rectangle" fill="#B1D8D5" fill-rule="nonzero"></path>
        <path d="M98.1000952,150 L86.7864583,150 C86.0961024,150 85.5364583,150.559644 85.5364583,151.25 L85.5364583,162.563637 C85.5364583,163.253993 86.0961024,163.813637 86.7864583,163.813637 L98.1000952,163.813637 C98.7904512,163.813637 99.3500952,163.253993 99.3500952,162.563637 L99.3500952,151.25 C99.3500952,150.559644 98.7904512,150 98.1000952,150 Z M96.85,152.499 L96.85,161.313 L88.036,161.313 L88.036,152.499 L96.85,152.499 Z" id="Rectangle" fill="#B1D8D5" fill-rule="nonzero"></path>
        <path d="M161.119792,112.083333 C161.810148,112.083333 162.369792,112.642977 162.369792,113.333333 C162.369792,113.980542 161.877917,114.512867 161.247597,114.57688 L161.119792,114.583333 L106.786458,114.583333 C106.096102,114.583333 105.536458,114.023689 105.536458,113.333333 C105.536458,112.686125 106.028333,112.153799 106.658653,112.089787 L106.786458,112.083333 L161.119792,112.083333 Z" id="Line" fill="#B1D8D5" fill-rule="nonzero"></path>
        <path d="M161.119792,133.75 C161.810148,133.75 162.369792,134.309644 162.369792,135 C162.369792,135.647209 161.877917,136.179534 161.247597,136.243546 L161.119792,136.25 L106.786458,136.25 C106.096102,136.25 105.536458,135.690356 105.536458,135 C105.536458,134.352791 106.028333,133.820466 106.658653,133.756454 L106.786458,133.75 L161.119792,133.75 Z" id="Line" fill="#B1D8D5" fill-rule="nonzero"></path>
        <path d="M161.119792,155.416667 C161.810148,155.416667 162.369792,155.976311 162.369792,156.666667 C162.369792,157.313875 161.877917,157.846201 161.247597,157.910213 L161.119792,157.916667 L106.786458,157.916667 C106.096102,157.916667 105.536458,157.357023 105.536458,156.666667 C105.536458,156.019458 106.028333,155.487133 106.658653,155.42312 L106.786458,155.416667 L161.119792,155.416667 Z" id="Line" fill="#B1D8D5" fill-rule="nonzero"></path>
        <path d="M124.854187,42.5462 C119.506195,42.6860643 115.12728,46.71777 114.445357,51.913405 L114.425,52.08 L100.262651,52.0809876 C99.0200105,52.0809876 98.0126512,53.0883469 98.0126512,54.3309876 L98.0126512,60.0032793 C98.0126512,64.3786402 101.559582,67.925571 105.934943,67.925571 L144.348254,67.925571 C148.723615,67.925571 152.270546,64.3786402 152.270546,60.0032793 L152.270546,54.3309876 L152.265355,54.1769388 C152.186191,53.0061492 151.21141,52.0809876 150.020546,52.0809876 L135.856,52.08 L135.835579,51.9082374 C135.131789,46.6054218 130.6024,42.5424459 125.141598,42.5424459 L124.854187,42.5462 Z M125.141598,45.0424459 C129.631202,45.0424459 133.301681,48.617604 133.426837,53.0943439 L133.430262,53.3484381 L133.438362,53.4749149 C133.509898,54.0984106 134.039311,54.5809876 134.68014,54.5809876 L149.77,54.58 L149.770546,60.0032793 C149.770546,62.9979283 147.342903,65.425571 144.348254,65.425571 L105.934943,65.425571 L105.716861,65.4212655 C102.823316,65.3068121 100.512651,62.9248881 100.512651,60.0032793 L100.512,54.58 L115.603057,54.5809876 C116.293413,54.5809876 116.853057,54.0213435 116.853057,53.3309876 C116.853057,48.7533524 120.563963,45.0424459 125.141598,45.0424459 Z" id="Rectangle-2" fill="#007F9C" fill-rule="nonzero"></path>
        <path d="M125.141598,49.4042907 C127.705738,49.4042907 129.784384,51.4829367 129.784384,54.0470764 C129.784384,54.4841457 129.926629,54.9452701 130.115387,55.40955 L130.193144,55.5953808 C130.219738,55.6573474 130.246933,55.7193206 130.2745,55.7812509 L130.400306,56.0594796 C130.657965,56.623607 130.918356,57.1779263 131.007951,57.6845544 L146.25235,57.684383 L146.25235,59.308326 C146.25235,60.9651803 144.909204,62.308326 143.25235,62.308326 L107.188641,62.308326 C105.531786,62.308326 104.188641,60.9651803 104.188641,59.308326 L104.188641,57.684383 L119.275246,57.6845544 C119.320752,57.4272354 119.410317,57.1576136 119.521207,56.8806526 L119.59557,56.7007883 C119.685258,56.4898716 119.784274,56.275394 119.882891,56.0594796 L120.008697,55.7812509 C120.036264,55.7193206 120.063459,55.6573474 120.090053,55.5953808 L120.16781,55.40955 C120.356568,54.9452701 120.498813,54.4841457 120.498813,54.0470764 C120.498813,51.4829367 122.577459,49.4042907 125.141598,49.4042907 Z" id="Rectangle-2" fill="#E3EEEE"></path>
    </g>
</svg>