<?xml version="1.0" encoding="UTF-8"?>
<svg width="250px" height="250px" viewBox="0 0 250 250" version="1.1" xmlns="http://www.w3.org/2000/svg" xmlns:xlink="http://www.w3.org/1999/xlink">
    <title>Documents</title>
    <g id="Documents" stroke="none" stroke-width="1" fill="none" fill-rule="evenodd">
        <path d="M66.1310089,68.7873891 L74.2786257,68.8728486 C74.9689437,68.8800892 75.5226872,69.4455722 75.5154466,70.1358902 C75.5086585,70.7830633 75.0112277,71.3102003 74.3802708,71.3675983 L74.2524049,71.372711 L66.0830121,71.2873204 C64.9824447,71.2873204 64.0811984,72.1407159 64.0049097,73.2218705 L63.9996788,73.3706537 L63.9996788,196.668916 C63.9996788,199.587494 66.307947,201.966947 69.1984899,202.081282 L69.4163454,202.085583 L167.749679,202.085583 C170.668257,202.085583 173.04771,199.777315 173.162044,196.886772 L173.166345,196.668916 L173.166345,188.90921 C173.166345,188.218854 173.72599,187.65921 174.416345,187.65921 C175.063554,187.65921 175.595879,188.151085 175.659892,188.781405 L175.666345,188.90921 L175.666345,196.668916 C175.666345,200.958675 172.254423,204.451537 167.996262,204.581816 L167.749679,204.585583 L69.4163454,204.585583 C65.1265865,204.585583 61.6337249,201.17366 61.5034459,196.9155 L61.4996788,196.668916 L61.4996788,73.3706537 C61.4996788,70.9116716 63.4361234,68.9049704 65.8672535,68.7923091 L66.1310089,68.7873891 Z M80.8668542,68.9418041 L88.5594645,69.0223187 C89.2497826,69.0295439 89.8035388,69.5950145 89.7963835,70.2853326 C89.78954,70.9325058 89.292121,71.459654 88.6611655,71.5170661 L88.5332997,71.5221817 L80.8406894,71.4416672 C80.1503713,71.434442 79.596615,70.8689714 79.6037703,70.1786533 C79.6110654,69.4883351 80.176536,68.9345789 80.8668542,68.9418041 Z" id="Shape" fill="#007F9C" fill-rule="nonzero" transform="translate(118.583012, 136.686486) rotate(-7.000000) translate(-118.583012, -136.686486) "></path>
        <path d="M86.1190613,80.3113026 L86.1197917,177.666667 C86.1197917,179.875806 87.9106527,181.666667 90.1197917,181.666667 L90.1197917,181.666667 L175.135061,181.666303 L175.528218,184.868565 C175.934862,188.180414 173.611509,191.190946 170.338864,191.592776 L82.9355458,202.324554 C79.6629004,202.726384 76.6802471,200.367348 76.2736032,197.055499 L62.5277568,85.1045646 C62.3931437,84.0082284 63.1727742,83.0103468 64.2691104,82.8757337 L76.4051745,81.3856124 L86.1190613,80.3113026 Z" id="Rectangle-2" fill="#E3EEEE"></path>
        <path d="M169.81848,41.6666667 C170.878917,41.6666667 171.895958,42.0877543 172.646032,42.8373646 L196.61401,66.7905168 C197.364691,67.5407333 197.786458,68.558524 197.786458,69.6198188 L197.786458,177.666667 C197.786458,179.875806 195.995597,181.666667 193.786458,181.666667 L90.1197917,181.666667 C87.9106527,181.666667 86.1197917,179.875806 86.1197917,177.666667 L86.1197917,45.6666667 C86.1197917,43.4575277 87.9106527,41.6666667 90.1197917,41.6666667 L169.81848,41.6666667 Z M169.81848,44.1666667 L90.1197917,44.1666667 C89.3400955,44.1666667 88.699343,44.7615547 88.6266582,45.5222067 L88.6197917,45.6666667 L88.6197917,177.666667 C88.6197917,178.446363 89.2146797,179.087115 89.9753317,179.1598 L90.1197917,179.166667 L193.786458,179.166667 C194.566154,179.166667 195.206907,178.571779 195.279592,177.811127 L195.286458,177.666667 L195.286458,69.6198188 C195.286458,69.2715815 195.165365,68.9358345 194.946505,68.6688691 L194.84679,68.5588305 L170.878812,44.6056784 C170.632694,44.3597125 170.309927,44.2080686 169.966677,44.1740008 L169.81848,44.1666667 Z" id="Rectangle" fill="#007F9C" fill-rule="nonzero"></path>
        <path d="M169.453125,44.4213867 C170.100334,44.4213867 170.632659,44.9132614 170.696671,45.5435815 L170.703125,45.6713867 L170.703125,65 C170.703125,67.0042592 172.275486,68.6412737 174.253966,68.744802 L174.453125,68.75 L187.675781,68.75 C188.366137,68.75 188.925781,69.3096441 188.925781,70 C188.925781,70.6472087 188.433907,71.1795339 187.803586,71.2435464 L187.675781,71.25 L174.453125,71.25 C171.078052,71.25 168.327813,68.5747632 168.207247,65.2291269 L168.203125,65 L168.203125,45.6713867 C168.203125,44.9810308 168.762769,44.4213867 169.453125,44.4213867 Z" id="Shape" fill="#007F9C" fill-rule="nonzero"></path>
        <path d="M149.453125,153.75 C150.143481,153.75 150.703125,154.309644 150.703125,155 C150.703125,155.647209 150.21125,156.179534 149.58093,156.243546 L149.453125,156.25 L106.119792,156.25 C105.429436,156.25 104.869792,155.690356 104.869792,155 C104.869792,154.352791 105.361666,153.820466 105.991986,153.756454 L106.119792,153.75 L149.453125,153.75 Z" id="Path" fill="#B1D8D5" fill-rule="nonzero"></path>
        <path d="M177.786458,132.083333 C178.476814,132.083333 179.036458,132.642977 179.036458,133.333333 C179.036458,133.980542 178.544584,134.512867 177.914264,134.57688 L177.786458,134.583333 L106.119792,134.583333 C105.429436,134.583333 104.869792,134.023689 104.869792,133.333333 C104.869792,132.686125 105.361666,132.153799 105.991986,132.089787 L106.119792,132.083333 L177.786458,132.083333 Z" id="Path" fill="#B1D8D5" fill-rule="nonzero"></path>
        <path d="M177.786458,110.416667 C178.476814,110.416667 179.036458,110.976311 179.036458,111.666667 C179.036458,112.313875 178.544584,112.846201 177.914264,112.910213 L177.786458,112.916667 L106.119792,112.916667 C105.429436,112.916667 104.869792,112.357023 104.869792,111.666667 C104.869792,111.019458 105.361666,110.487133 105.991986,110.42312 L106.119792,110.416667 L177.786458,110.416667 Z" id="Path" fill="#B1D8D5" fill-rule="nonzero"></path>
        <path d="M177.786458,88.75 C178.476814,88.75 179.036458,89.3096441 179.036458,90 C179.036458,90.6472087 178.544584,91.1795339 177.914264,91.2435464 L177.786458,91.25 L106.119792,91.25 C105.429436,91.25 104.869792,90.6903559 104.869792,90 C104.869792,89.3527913 105.361666,88.8204661 105.991986,88.7564536 L106.119792,88.75 L177.786458,88.75 Z" id="Path" fill="#B1D8D5" fill-rule="nonzero"></path>
        <path d="M149.453125,68.75 C150.143481,68.75 150.703125,69.3096441 150.703125,70 C150.703125,70.6472087 150.21125,71.1795339 149.58093,71.2435464 L149.453125,71.25 L106.119792,71.25 C105.429436,71.25 104.869792,70.6903559 104.869792,70 C104.869792,69.3527913 105.361666,68.8204661 105.991986,68.7564536 L106.119792,68.75 L149.453125,68.75 Z" id="Path" fill="#B1D8D5" fill-rule="nonzero"></path>
    </g>
</svg>