<?xml version="1.0" encoding="utf-8"?>
<!-- Generator: Adobe Illustrator 21.0.0, SVG Export Plug-In . SVG Version: 6.00 Build 0)  -->
<svg version="1.1" id="Layer_1" xmlns="http://www.w3.org/2000/svg" xmlns:xlink="http://www.w3.org/1999/xlink" x="0px" y="0px"
	 viewBox="0 0 24 24" style="enable-background:new 0 0 24 24;" xml:space="preserve">
<style type="text/css">
	.st0{fill:#FFFFFF;}
</style>
<path class="st0" d="M13.4,12l7.3-7.3c0.4-0.4,0.4-1,0-1.4s-1-0.4-1.4,0L12,10.6L4.7,3.3c-0.4-0.4-1-0.4-1.4,0s-0.4,1,0,1.4l7.3,7.3
	l-7.3,7.3c-0.4,0.4-0.4,1,0,1.4C3.5,20.9,3.7,21,4,21s0.5-0.1,0.7-0.3l7.3-7.3l7.3,7.3c0.2,0.2,0.5,0.3,0.7,0.3s0.5-0.1,0.7-0.3
	c0.4-0.4,0.4-1,0-1.4L13.4,12z"/>
</svg>
