<?xml version="1.0" encoding="UTF-8"?>
<svg width="250px" height="250px" viewBox="0 0 250 250" version="1.1" xmlns="http://www.w3.org/2000/svg" xmlns:xlink="http://www.w3.org/1999/xlink">
    <title>search</title>
    <g id="search" stroke="none" stroke-width="1" fill="none" fill-rule="evenodd">
        <g id="Search" transform="translate(65.000000, 56.666667)">
            <path d="M55.8333333,0 C86.6692319,0 111.666667,24.9974348 111.666667,55.8333333 C111.666667,86.6692319 86.6692319,111.666667 55.8333333,111.666667 C24.9974348,111.666667 0,86.6692319 0,55.8333333 C0,24.9974348 24.9974348,0 55.8333333,0 Z M55.8333333,11.6666667 C31.4407569,11.6666667 11.6666667,31.4407569 11.6666667,55.8333333 C11.6666667,80.2259098 31.4407569,100 55.8333333,100 C80.2259098,100 100,80.2259098 100,55.8333333 C100,31.4407569 80.2259098,11.6666667 55.8333333,11.6666667 Z" id="Oval-2" fill="#E3EEEE"></path>
            <path d="M55.8333333,0 C86.6692319,0 111.666667,24.9974348 111.666667,55.8333333 C111.666667,86.6692319 86.6692319,111.666667 55.8333333,111.666667 C24.9974348,111.666667 0,86.6692319 0,55.8333333 C0,24.9974348 24.9974348,0 55.8333333,0 Z M55.8333333,2.5 C26.3781467,2.5 2.5,26.3781467 2.5,55.8333333 C2.5,85.28852 26.3781467,109.166667 55.8333333,109.166667 C85.28852,109.166667 109.166667,85.28852 109.166667,55.8333333 C109.166667,26.3781467 85.28852,2.5 55.8333333,2.5 Z" id="Oval" fill="#007F9C" fill-rule="nonzero"></path>
            <path d="M45,36.6666667 C45,55.9966329 60.6700338,71.6666667 80,71.6666667 C83.7973792,71.6666667 87.4535116,71.0619169 90.8773418,69.9434728 C85.2884376,83.8118742 71.704086,93.6011212 55.8333333,93.6011212 C34.97476,93.6011212 18.0655454,76.6919066 18.0655454,55.8333333 C18.0655454,36.9319895 31.9503446,21.2736143 50.0766707,18.5014798 C46.8552667,23.7976089 45,30.0154774 45,36.6666667 Z" id="Oval-3" fill="#E3EEEE"></path>
            <path d="M55.8333333,10.4166667 C80.9162657,10.4166667 101.25,30.7504009 101.25,55.8333333 C101.25,80.9162657 80.9162657,101.249969 55.8245625,101.249969 C52.7185734,101.228175 49.6634072,100.940125 46.6599042,100.385729 C45.9810165,100.260418 45.5322541,99.6084858 45.6575653,98.9295982 C45.7828765,98.2507105 46.4348084,97.8019482 47.1136961,97.9272593 C49.9726396,98.4549719 52.8818289,98.729259 55.8333333,98.75 C79.5355538,98.75 98.75,79.5355538 98.75,55.8333333 C98.75,32.1311128 79.5355538,12.9166667 55.8333333,12.9166667 C49.8604404,12.9166667 44.0610405,14.1367722 38.7057014,16.4703309 C29.6072997,20.4349081 22.1269512,27.4739076 17.6060118,36.3060319 C14.5384656,42.2988019 12.9166667,48.9484421 12.9166667,55.8333333 C12.9166667,62.0886389 14.2550282,68.152431 16.8063237,73.712178 C18.5787913,77.5747142 20.9189036,81.1524512 23.7416219,84.3290069 C24.2001889,84.8450569 24.1535898,85.6351401 23.6375398,86.0937071 C23.1214898,86.5522741 22.3314066,86.505675 21.8728396,85.989625 C18.8863163,82.6287308 16.4100766,78.8428722 14.5341384,74.7548543 C11.833484,68.8696265 10.4166667,62.4503703 10.4166667,55.8333333 C10.4166667,48.5500275 12.133616,41.5102551 15.380614,35.1669074 C20.1646347,25.8208266 28.0781969,18.3741733 37.7070327,14.1784625 C43.3759547,11.7082617 49.5151586,10.4166667 55.8333333,10.4166667 Z" id="Oval" fill="#007F9C" fill-rule="nonzero"></path>
            <path d="M27.0257081,89.3361273 C27.4611366,88.8004097 28.248406,88.7191093 28.7841236,89.1545378 C32.2913768,92.0052152 36.226734,94.2888076 40.4496469,95.9108177 C41.0940994,96.1583503 41.4158665,96.881447 41.168334,97.5258994 C40.9208015,98.1703519 40.1977048,98.492119 39.5532523,98.2445865 C35.0832442,96.5276678 30.9184075,94.1109139 27.2072975,91.0945429 C26.6715799,90.6591144 26.5902796,89.8718449 27.0257081,89.3361273 Z" id="Oval" fill="#007F9C" fill-rule="nonzero"></path>
            <path d="M45.5602963,26.9758673 C45.8277486,27.612311 45.5286219,28.3450635 44.8921782,28.6125158 C33.6906551,33.3197236 26.25,44.3063634 26.25,56.6666667 C26.25,57.3570226 25.6903559,57.9166667 25,57.9166667 C24.3096441,57.9166667 23.75,57.3570226 23.75,56.6666667 C23.75,43.2910769 31.8021173,31.4015711 43.9236478,26.3077492 C44.5600915,26.0402969 45.292844,26.3394236 45.5602963,26.9758673 Z M56.6666667,23.75 C57.3570226,23.75 57.9166667,24.3096441 57.9166667,25 C57.9166667,25.6903559 57.3570226,26.25 56.6666667,26.25 C54.6483846,26.25 52.6560522,26.4463999 50.7088474,26.832998 C50.0317082,26.9674373 49.373794,26.5274921 49.2393547,25.8503529 C49.1049155,25.1732138 49.5448606,24.5152995 50.2219998,24.3808603 C52.3293154,23.9624737 54.4847054,23.75 56.6666667,23.75 Z" id="Shape" fill="#B1D8D5" fill-rule="nonzero"></path>
            <path d="M100.782783,99.1161165 C101.238395,98.6605048 101.958215,98.6301307 102.449055,99.0249942 L102.55055,99.1161165 L110.883883,107.44945 C111.372039,107.937605 111.372039,108.729061 110.883883,109.217217 C110.428272,109.672828 109.708451,109.703203 109.217612,109.308339 L109.116117,109.217217 L100.782783,100.883883 C100.294628,100.395728 100.294628,99.6042719 100.782783,99.1161165 Z" id="Path-4" fill="#007F9C" fill-rule="nonzero"></path>
            <path d="M122.947168,106.910681 L141.422652,125.386165 C145.390769,129.354281 145.390769,135.787869 141.422652,139.755986 C137.454536,143.724102 131.020948,143.724102 127.052832,139.755986 L108.577348,121.280502 C104.609231,117.312385 104.609231,110.878798 108.577348,106.910681 C112.545464,102.942565 118.979052,102.942565 122.947168,106.910681 Z M116.860194,110.193528 C116.046602,111.00712 116.046602,112.326214 116.860194,113.139806 L135.193528,131.473139 C136.00712,132.286731 137.326214,132.286731 138.139806,131.473139 C138.953398,130.659547 138.953398,129.340453 138.139806,128.526861 L119.806472,110.193528 C118.99288,109.379935 117.673786,109.379935 116.860194,110.193528 Z" id="Rectangle-2-Copy" fill="#E3EEEE"></path>
            <path d="M122.947168,106.910681 L141.422652,125.386165 C145.390769,129.354281 145.390769,135.787869 141.422652,139.755986 C137.454536,143.724102 131.020948,143.724102 127.052832,139.755986 L108.577348,121.280502 C104.609231,117.312385 104.609231,110.878798 108.577348,106.910681 C112.545464,102.942565 118.979052,102.942565 122.947168,106.910681 Z M121.179402,108.678448 C118.187596,105.686642 113.33692,105.686642 110.345115,108.678448 C107.418348,111.605214 107.354723,116.310909 110.154239,119.31502 L110.345115,119.512735 L128.820598,137.988219 C131.812404,140.980024 136.66308,140.980024 139.654885,137.988219 C142.581652,135.061452 142.645277,130.355758 139.845761,127.351647 L139.654885,127.153932 L121.179402,108.678448 Z" id="Rectangle" fill="#007F9C" fill-rule="nonzero"></path>
        </g>
    </g>
</svg>