<?xml version="1.0" encoding="UTF-8"?>
<svg width="250px" height="250px" viewBox="0 0 250 250" version="1.1" xmlns="http://www.w3.org/2000/svg" xmlns:xlink="http://www.w3.org/1999/xlink">
    <title>dragndrop</title>
    <g id="dragndrop" stroke="none" stroke-width="1" fill="none" fill-rule="evenodd">
        <path d="M115.416667,72.8446102 L115.416667,69.5111269 C115.416667,68.3605337 114.483927,67.4277936 113.333333,67.4277936 C112.18274,67.4277936 111.25,68.3605337 111.25,69.5111269 L111.25,72.8446102 C111.25,73.9952034 112.18274,74.9279435 113.333333,74.9279435 C114.483927,74.9279435 115.416667,73.9952034 115.416667,72.8446102 Z M115.875876,56.80628 C116.142706,55.9030608 116.522377,55.0393332 117.004817,54.2331126 C117.595627,53.2457891 117.27419,51.9664587 116.286866,51.3756482 C115.299543,50.7848377 114.020212,51.106275 113.429402,52.0935985 C112.767659,53.1994601 112.246412,54.3852628 111.879933,55.6257906 C111.55395,56.7292397 112.184211,57.8880234 113.28766,58.2140065 C114.391109,58.5399896 115.549893,57.909729 115.875876,56.80628 Z M126.388337,48.7533634 L126.661767,48.750001 L129.677027,48.75 C130.82762,48.7499995 131.76036,47.817259 131.76036,46.6666658 C131.76036,45.5160726 130.827619,44.5833333 129.677025,44.5833333 L126.660881,44.5833333 C126.53569,44.5833875 126.411533,44.5849159 126.287546,44.587916 C125.13729,44.6157485 124.227385,45.5707785 124.255218,46.721035 C124.28305,47.8712916 125.23808,48.781196 126.388337,48.7533634 Z M143.01036,48.75 L146.343693,48.75 C147.494286,48.75 148.427026,47.8172599 148.427026,46.6666667 C148.427026,45.5160734 147.494286,44.5833333 146.343693,44.5833333 L143.01036,44.5833333 C141.859766,44.5833333 140.927026,45.5160734 140.927026,46.6666667 C140.927026,47.8172599 141.859766,48.75 143.01036,48.75 Z M159.677026,48.75 L163.01036,48.75 C164.160953,48.75 165.093693,47.8172599 165.093693,46.6666667 C165.093693,45.5160734 164.160953,44.5833333 163.01036,44.5833333 L159.677026,44.5833333 C158.526433,44.5833333 157.593693,45.5160734 157.593693,46.6666667 C157.593693,47.8172599 158.526433,48.75 159.677026,48.75 Z M176.343693,48.75 L179.677026,48.75 C180.82762,48.75 181.76036,47.8172599 181.76036,46.6666667 C181.76036,45.5160734 180.82762,44.5833333 179.677026,44.5833333 L176.343693,44.5833333 C175.1931,44.5833333 174.26036,45.5160734 174.26036,46.6666667 C174.26036,47.8172599 175.1931,48.75 176.343693,48.75 Z M193.01036,48.75 L196.343693,48.75 C197.494286,48.75 198.427026,47.8172599 198.427026,46.6666667 C198.427026,45.5160734 197.494286,44.5833333 196.343693,44.5833333 L193.01036,44.5833333 C191.859766,44.5833333 190.927026,45.5160734 190.927026,46.6666667 C190.927026,47.8172599 191.859766,48.75 193.01036,48.75 Z M208.11255,50.7783465 C208.883652,51.3185293 209.585132,51.9537938 210.199376,52.6678383 C210.949725,53.5401004 212.265112,53.6389305 213.137374,52.8885815 C214.009636,52.1382326 214.108466,50.8228464 213.358117,49.9505843 C212.517921,48.9738767 211.558455,48.1049784 210.503197,47.3657354 C209.560831,46.7055763 208.261727,46.9343506 207.601568,47.8767171 C206.941409,48.8190836 207.170183,50.1181874 208.11255,50.7783465 Z M212.916667,63.8648235 L212.916667,67.1981568 C212.916667,68.34875 213.849407,69.2814902 215,69.2814902 C216.150593,69.2814902 217.083333,68.34875 217.083333,67.1981568 L217.083333,63.8648235 C217.083333,62.7142303 216.150593,61.7814902 215,61.7814902 C213.849407,61.7814902 212.916667,62.7142303 212.916667,63.8648235 Z M212.916667,80.5314902 L212.916667,83.8648235 C212.916667,85.0154167 213.849407,85.9481568 215,85.9481568 C216.150593,85.9481568 217.083333,85.0154167 217.083333,83.8648235 L217.083333,80.5314902 C217.083333,79.3808969 216.150593,78.4481568 215,78.4481568 C213.849407,78.4481568 212.916667,79.3808969 212.916667,80.5314902 Z M212.916667,97.1981568 L212.916667,100.53149 C212.916667,101.682083 213.849407,102.614823 215,102.614823 C216.150593,102.614823 217.083333,101.682083 217.083333,100.53149 L217.083333,97.1981568 C217.083333,96.0475636 216.150593,95.1148235 215,95.1148235 C213.849407,95.1148235 212.916667,96.0475636 212.916667,97.1981568 Z M212.916667,113.864823 L212.916667,117.198157 C212.916667,118.34875 213.849407,119.28149 215,119.28149 C216.150593,119.28149 217.083333,118.34875 217.083333,117.198157 L217.083333,113.864823 C217.083333,112.71423 216.150593,111.78149 215,111.78149 C213.849407,111.78149 212.916667,112.71423 212.916667,113.864823 Z M212.916667,130.53149 L212.916667,133.864823 C212.916667,135.015417 213.849407,135.948157 215,135.948157 C216.150593,135.948157 217.083333,135.015417 217.083333,133.864823 L217.083333,130.53149 C217.083333,129.380897 216.150593,128.448157 215,128.448157 C213.849407,128.448157 212.916667,129.380897 212.916667,130.53149 Z M207.864113,143.55747 C207.079895,144.076249 206.233826,144.494906 205.344231,144.802443 C204.256785,145.178379 203.679993,146.364683 204.055928,147.452129 C204.431863,148.539574 205.618168,149.116367 206.705613,148.740431 C207.927044,148.318176 209.087939,147.743736 210.162978,147.032571 C211.122601,146.397757 211.38591,145.105211 210.751096,144.145588 C210.116282,143.185965 208.823736,142.922656 207.864113,143.55747 Z M192.780713,145.416667 L189.447379,145.416667 C188.296786,145.416667 187.364046,146.349407 187.364046,147.5 C187.364046,148.650593 188.296786,149.583333 189.447379,149.583333 L192.780713,149.583333 C193.931306,149.583333 194.864046,148.650593 194.864046,147.5 C194.864046,146.349407 193.931306,145.416667 192.780713,145.416667 Z" id="Shape" fill="#B1D8D5" fill-rule="nonzero"></path>
        <path d="M90.3600868,183.75 C91.0504427,183.75 91.6100868,184.309644 91.6100868,185 C91.6100868,185.647209 91.1182121,186.179534 90.487892,186.243546 L90.3600868,186.25 L79.2499836,186.25 C78.5596276,186.25 77.9999836,185.690356 77.9999836,185 C77.9999836,184.352791 78.4918582,183.820466 79.1221783,183.756454 L79.2499836,183.75 L90.3600868,183.75 Z M126.666667,82.9166667 C134.61622,82.9166667 141.080154,89.2773595 141.246707,97.1869844 L141.25,97.5 L141.25,121.003 C141.25,121.693356 140.690356,122.253 140,122.253 C139.352791,122.253 138.820466,121.761125 138.756454,121.130805 L138.75,121.003 L138.75,97.5 C138.75,90.927672 133.502802,85.5808929 126.96912,85.4203781 L126.666667,85.4166667 L51.6666667,85.4166667 C45.0943387,85.4166667 39.7475595,90.6638651 39.5870447,97.1975464 L39.5833333,97.5 L39.5833333,171.666667 C39.5833333,178.238995 44.8305317,183.585774 51.3642131,183.746289 L51.6666667,183.75 L71.7609462,183.75 C72.4513021,183.75 73.0109462,184.309644 73.0109462,185 C73.0109462,185.647209 72.5190715,186.179534 71.8887514,186.243546 L71.7609462,186.25 L51.6666667,186.25 C43.7171134,186.25 37.2531796,179.889307 37.0866261,171.979682 L37.0833333,171.666667 L37.0833333,97.5 C37.0833333,89.5504468 43.4440262,83.086513 51.3536511,82.9199594 L51.6666667,82.9166667 L126.666667,82.9166667 Z" id="Shape" fill="#007F9C" fill-rule="nonzero"></path>
        <path d="M109.384523,167.036856 L110.733911,167.797279 C105.787066,166.54807 102.10006,166.4954 99.6728934,167.639269 C95.8070536,169.461153 92.7907414,173.088119 93.6854568,178.749891 L50.3333333,178.75 C47.5719096,178.75 45.3333333,176.511424 45.3333333,173.75 L45.3333333,95.4166667 C45.3333333,92.6552429 47.5719096,90.4166667 50.3333333,90.4166667 L54.7692704,90.4175335 C61.3350335,123.363404 81.7041019,151.130191 109.384523,167.036856 Z" id="Rectangle-2" fill="#E3EEEE"></path>
        <g id="Group" transform="translate(137.966061, 174.328401) rotate(-17.000000) translate(-137.966061, -174.328401) translate(85.531077, 116.273066)">
            <path d="M20.6967882,46.9716335 L20.6578524,47.1157777 C20.508027,47.7133703 20.4259686,48.397215 20.4259686,49.1759574 C20.4259686,55.4058966 36.7553331,71.7780424 54.6347952,82.8792274 C56.9930727,84.0774436 60.4143447,87.4588027 64.898611,93.0233047 L56.1479739,96.7697873 C54.3344142,94.9458967 52.1420095,93.3807389 49.5707598,92.0743138 C31.6912978,80.9731288 14.1825863,58.7255618 14.1825863,52.4956227 C14.1825863,47.4124155 17.6789072,46.3725769 20.6967882,46.9716335 Z M31.4570465,3.49741578 L31.3272227,3.71283787 C29.8641592,6.19245346 29.0949885,9.46618113 29.7914329,11.7441483 C34.4541455,24.0356899 37.8087412,33.4428502 39.8552199,39.9656291 C41.3969495,44.8796121 44.9202995,50.7686598 45.4086009,57.9027927 C45.5151781,59.4598954 44.8990821,61.4750544 43.5603132,63.9482697 C42.1928323,61.7886364 40.9134705,59.805658 39.7222278,57.9993345 C37.5666187,52.1259979 35.6823769,46.6192525 34.0695933,41.4787978 C32.0231146,34.9560189 28.8786069,25.2710216 24.6360702,12.4238061 C23.4753294,8.6271941 25.2977225,4.70458826 28.706499,3.6624207 C29.6203412,3.38303109 30.5554244,3.33902069 31.4570465,3.49741578 Z" id="Path-2" fill="#E3EEEE"></path>
            <path d="M43.3586335,3.39001381 C47.5659578,3.39001381 50.935915,7.05661172 51.0590735,11.5496375 L51.062561,11.8048233 L51.7921138,50.3183604 C51.804956,51.0085926 51.2560082,51.5787323 50.565776,51.5918031 C49.9186833,51.604057 49.3771407,51.1223493 49.3012055,50.4933541 L49.2923333,50.365694 L48.5627851,11.8284901 C48.5627851,8.52052932 46.2009847,5.89001381 43.3586335,5.89001381 C40.5162823,5.89001381 38.1544819,8.52052932 38.1541725,11.8006811 L38.4478314,26.0331213 L38.537595,31.1230617 L38.6406369,38.2535551 L38.6809141,42.3628731 C38.7058113,45.7681357 38.7919064,49.3467111 38.9392212,53.0985228 L39.0465008,55.6253944 C39.1822422,58.6033515 39.3550207,61.6860955 39.5648465,64.8735905 C39.6503051,66.1718061 37.9426622,66.7205287 37.2558897,65.6155353 L35.9866654,63.5799533 L33.9056116,60.2743722 L32.5290326,58.1141334 L31.2446716,56.1220776 L30.0530973,54.298888 L28.9548785,52.6452475 L28.1439017,51.4448697 L27.2151561,50.0981392 L26.540495,49.1441746 L25.9268919,48.3002953 L25.506934,47.7398398 L25.1216079,47.2416516 L24.7710364,46.8058781 L24.5566909,46.5501103 L24.357883,46.3221917 L24.1746489,46.122166 L24.0070251,45.950077 L23.855048,45.8059684 C20.9656076,43.1979255 17.6318655,43.3876686 16.3872812,47.4585206 C16.2408595,47.9374443 16.1925368,48.6009652 16.2364636,49.4224326 L16.2695373,49.8860097 C16.32574,50.5245707 16.4301734,51.2441108 16.5805873,52.0343782 L16.7019838,52.6401799 L16.8404121,53.2715432 L16.9956612,53.927507 C17.050191,54.1501549 17.107489,54.3767427 17.1675202,54.6071102 L17.355778,55.3093917 L17.5602238,56.0333904 C17.5956353,56.1558132 17.6317126,56.2791008 17.6684512,56.4032333 L17.8967834,57.1580057 L18.1407761,57.9320926 C18.1827349,58.0626632 18.2253374,58.1939985 18.2685792,58.3260785 L18.5356673,59.127335 L18.8178885,59.945503 L19.115032,60.7796217 L19.4268868,61.6287298 L19.7532419,62.4918663 L20.0938865,63.36807 C20.1518396,63.5151395 20.2103794,63.6627134 20.2695013,63.8107717 L20.6311844,64.7047743 L21.0066296,65.6094413 C21.0703389,65.7610544 21.1346128,65.9130719 21.199447,66.0654736 L21.5951397,66.9843353 C25.9112337,76.8873106 31.7500671,86.6848935 37.8907274,93.8731451 L38.3775933,94.4361756 L38.7573818,94.8088685 C40.5860211,96.6384982 42.0764703,98.5828298 43.225368,100.641366 L43.4844337,101.11844 C43.8068037,101.728906 43.5732556,102.485119 42.9627894,102.807489 C42.3523233,103.129859 41.5961102,102.896311 41.2737402,102.285845 C40.2178378,100.286301 38.7991009,98.3913757 37.0133949,96.6004552 L36.5947927,96.1890118 L36.5210574,96.1116221 C33.6942116,92.8784745 30.9123786,89.0329779 28.3164666,84.9228946 L27.613206,83.7956641 C27.4967995,83.6067861 27.3808036,83.4174267 27.2652315,83.2276187 L26.5769908,82.0836475 L25.8995573,80.9304756 L25.2335663,79.7696704 C25.1235566,79.5756539 25.0140501,79.3813846 24.9050602,79.1868953 L24.2574237,78.0175799 C24.0436814,77.6271019 23.8321108,77.236005 23.6228177,76.8445504 L23.0018774,75.6693747 L22.3952378,74.4936203 C21.9957195,73.7099396 21.6061586,72.9269183 21.2274019,72.1466465 L20.667476,70.9785623 L20.1243917,69.8161702 C20.0353164,69.6229997 19.9469693,69.4301316 19.8593637,69.2375986 L19.3427328,68.086684 C17.904754,64.838635 16.6886984,61.7063215 15.7595814,58.8502015 L15.443678,57.8538887 C13.9247917,52.9322784 13.3233056,48.9295739 13.9965193,46.7275914 C15.8739138,40.5869105 21.4522675,40.2694131 25.530136,43.950145 L25.7085373,44.1183823 L25.9018154,44.3144754 L26.1100089,44.5384707 C26.1459529,44.5781311 26.18252,44.6189559 26.219711,44.6609463 L26.4503499,44.926882 L26.6960008,45.2208358 L26.9567022,45.5428543 L27.3760586,46.0786045 L27.8294959,46.6777608 L28.1507856,47.1125012 L28.8391346,48.0669179 L29.5887669,49.1348913 L30.3999914,50.3167925 L31.2731172,51.6129925 L32.4520436,53.3945404 L33.7287766,55.3559844 L35.1039196,57.4980493 L36.7715933,60.1291756 L36.7449678,59.644848 C36.4320911,53.9133581 36.2476209,48.5422039 36.1916229,43.5311548 L36.1347341,37.781946 L36.0277126,30.5503765 L35.8676403,21.9001787 L35.6727642,12.6537676 C35.6667225,12.3800797 35.6606284,12.1049872 35.6544819,11.8284901 C35.6544819,7.19627921 39.0719257,3.39001381 43.3586335,3.39001381 Z" id="Path" fill="#007F9C" fill-rule="nonzero" transform="translate(32.757609, 53.171204) rotate(-17.000000) translate(-32.757609, -53.171204) "></path>
            <path d="M51.0695515,17.3134405 C54.9740667,17.3134405 58.9465359,20.8672527 59.1008179,24.1071478 L59.1054619,24.3011339 L59.1054619,42.2793286 C59.1054619,42.9696846 58.5458178,43.5293286 57.8554619,43.5293286 C57.2082532,43.5293286 56.675928,43.037454 56.6119155,42.4071339 L56.6054619,42.2793286 L56.6054619,24.3011339 C56.6054619,22.4454302 53.720111,19.8134405 51.0695515,19.8134405 C48.6132656,19.8134405 46.3276273,22.1453688 46.2025427,24.1317788 L46.1971587,24.3011339 L46.1971587,43.9345148 C46.1971587,44.6248707 45.6375146,45.1845148 44.9471587,45.1845148 C44.29995,45.1845148 43.7676248,44.6926401 43.7036123,44.06232 L43.6971587,43.9345148 L43.6971587,24.3011339 C43.6971587,20.927185 47.1334335,17.3134405 51.0695515,17.3134405 Z" id="Path" fill="#007F9C" fill-rule="nonzero" transform="translate(51.401310, 31.248978) rotate(-17.000000) translate(-51.401310, -31.248978) "></path>
            <path d="M63.5253555,17.5213036 C67.3947532,17.5213036 71.3851011,21.3772162 71.5371449,24.6417456 L71.5416317,24.8330611 L71.538564,32.5142683 C71.5382883,33.2046242 70.9784208,33.7640447 70.2880649,33.763769 C69.6408562,33.7635105 69.1087275,33.2714233 69.0449668,32.6410776 L69.0385642,32.5132698 L69.0416318,24.8325619 C69.0416318,22.9193406 66.098482,20.0213036 63.5253555,20.0213036 C61.1315045,20.0213036 58.7647918,22.6125922 58.63861,24.6630127 L58.6333287,24.8325619 L58.6333287,36.755783 C58.6333287,37.4461389 58.0736846,38.005783 57.3833287,38.005783 C56.73612,38.005783 56.2037948,37.5139083 56.1397823,36.8835883 L56.1333287,36.755783 L56.1333287,24.8325619 C56.1333287,21.4394188 59.6140511,17.5213036 63.5253555,17.5213036 Z" id="Path" fill="#007F9C" fill-rule="nonzero" transform="translate(63.837480, 27.763543) rotate(-17.000000) translate(-63.837480, -27.763543) "></path>
            <path d="M84.337313,17.6865396 C88.1993953,17.6865396 92.0764547,21.5040085 92.2270114,24.7770893 L92.2285933,24.8621756 L92.3743659,25.8406081 C93.4398351,33.2225376 93.7679852,40.2416668 93.3572983,46.8975446 L93.2936025,47.8459132 L93.1829879,49.3193823 C93.1643431,49.5593386 93.145576,49.7965634 93.1266604,50.0311756 L93.0111714,51.4084496 C92.9719395,51.8577253 92.9319015,52.2975027 92.8908458,52.7287338 L92.7644139,53.9977402 L92.6306062,55.221181 L92.4881529,56.4047682 C92.4390865,56.7932897 92.3883676,57.1761209 92.3357846,57.5542139 L92.1722315,58.6752304 C91.8048327,61.0774263 91.3497344,63.3196551 90.7488248,65.6633649 L90.4609169,66.7532349 C90.3613554,67.1195615 90.258131,67.489242 90.1510324,67.8632285 L89.8179017,68.9990579 C89.4727247,70.1497091 89.090774,71.3476822 88.6663363,72.6186815 L88.2275247,73.9149748 L87.7591187,75.2656645 L87.2598488,76.6764626 C86.3457854,79.13462 85.6322786,81.4683957 85.1187801,83.6771357 C84.9624519,84.3495588 84.2906163,84.7679364 83.6181932,84.6116082 C82.9457701,84.45528 82.5273925,83.7834444 82.6837206,83.1110213 C83.2222067,80.7948012 83.966685,78.3597223 84.9110096,75.8204913 L85.3998546,74.4393628 C85.4787571,74.2143276 85.5563912,73.9917896 85.6327834,73.77163 L86.0764438,72.4782606 C86.1479734,72.2671386 86.2183138,72.0581572 86.2874912,71.8511974 L86.6888105,70.6327473 L87.0634824,69.4571104 C87.1840722,69.0717328 87.3004314,68.6925397 87.4127707,68.3185799 L87.7379392,67.2114493 C88.469509,64.6603394 89.0144226,62.3190586 89.4449312,59.8613818 L89.6226411,58.8000143 C89.793768,57.7296183 89.9457775,56.6292837 90.084357,55.4733308 L90.2186706,54.2978874 C90.2403803,54.0985732 90.2617696,53.8974763 90.2828649,53.6944778 L90.4061182,52.4527164 L90.523578,51.1596097 L90.6365081,49.8094512 C90.6550225,49.5793534 90.6734008,49.3466407 90.6916694,49.1111942 L90.8001746,47.6647582 C91.2897134,40.9267163 90.9923815,33.7861042 89.9064445,26.2424064 L89.7459458,25.1619931 L89.7315431,24.972786 C89.7315431,23.0365811 86.8935489,20.1865396 84.337313,20.1865396 C81.917068,20.1865396 79.4597843,22.7923099 79.328726,24.8063846 L79.3232399,24.972786 L79.3232399,32.2856984 C79.3232399,32.9760543 78.7635959,33.5356984 78.0732399,33.5356984 C77.4260312,33.5356984 76.893706,33.0438237 76.8296935,32.4135036 L76.8232399,32.2856984 L76.8232399,24.972786 C76.8232399,21.6039124 80.4190493,17.6865396 84.337313,17.6865396 Z" id="Path" fill="#007F9C" fill-rule="nonzero" transform="translate(85.175891, 51.165448) rotate(-17.000000) translate(-85.175891, -51.165448) "></path>
            <path d="M98.9725313,89.2543005 L58.4049672,89.2543005 C56.057757,89.2543005 54.1549672,91.1570903 54.1549672,93.5043005 L54.1549672,103.337634 C54.1549672,105.684844 56.057757,107.587634 58.4049672,107.587634 L98.9725313,107.587634 C101.319741,107.587634 103.222531,105.684844 103.222531,103.337634 L103.222531,93.5043005 C103.222531,91.1570903 101.319741,89.2543005 98.9725313,89.2543005 Z M58.4049672,91.7543005 L98.9725313,91.7543005 C99.9390296,91.7543005 100.722531,92.5378022 100.722531,93.5043005 L100.722531,103.337634 C100.722531,104.304132 99.9390296,105.087634 98.9725313,105.087634 L58.4049672,105.087634 C57.4384688,105.087634 56.6549672,104.304132 56.6549672,103.337634 L56.6549672,93.5043005 C56.6549672,92.5378022 57.4384688,91.7543005 58.4049672,91.7543005 Z" id="Rectangle" fill="#007F9C" fill-rule="nonzero" transform="translate(78.688749, 98.420967) rotate(-22.000000) translate(-78.688749, -98.420967) "></path>
            <path d="M59.962077,94.352701 L97.0339526,94.352701 C97.5862373,94.352701 98.0339526,94.8004162 98.0339526,95.352701 L98.0339526,101.643357 C98.0339526,102.195641 97.5862373,102.643357 97.0339526,102.643357 L59.962077,102.643357 C59.4097923,102.643357 58.962077,102.195641 58.962077,101.643357 L58.962077,95.352701 C58.962077,94.8004162 59.4097923,94.352701 59.962077,94.352701 Z" id="Rectangle" fill="#E3EEEE" transform="translate(78.498015, 98.498029) rotate(-22.000000) translate(-78.498015, -98.498029) "></path>
        </g>
        <path d="M164.166667,83.1060606 C164.813875,83.1060606 165.346201,83.5979353 165.410213,84.2282554 L165.416667,84.3560606 L165.416667,109.810606 C165.416667,110.500962 164.857023,111.060606 164.166667,111.060606 C163.519458,111.060606 162.987133,110.568731 162.92312,109.938411 L162.916667,109.810606 L162.916667,84.3560606 C162.916667,83.6657047 163.476311,83.1060606 164.166667,83.1060606 Z" id="Line" fill="#B1D8D5" fill-rule="nonzero"></path>
        <path d="M176.893939,95.8333333 C177.584295,95.8333333 178.143939,96.3929774 178.143939,97.0833333 C178.143939,97.730542 177.652065,98.2628672 177.021745,98.3268797 L176.893939,98.3333333 L151.439394,98.3333333 C150.749038,98.3333333 150.189394,97.7736893 150.189394,97.0833333 C150.189394,96.4361246 150.681269,95.9037994 151.311589,95.8397869 L151.439394,95.8333333 L176.893939,95.8333333 Z" id="Line" fill="#B1D8D5" fill-rule="nonzero"></path>
    </g>
</svg>