<?xml version="1.0" encoding="utf-8"?>
<!-- Generator: Adobe Illustrator 23.0.2, SVG Export Plug-In . SVG Version: 6.00 Build 0)  -->
<svg version="1.1" id="Layer_1" xmlns="http://www.w3.org/2000/svg" xmlns:xlink="http://www.w3.org/1999/xlink" x="0px" y="0px"
	 viewBox="0 0 24 24" style="enable-background:new 0 0 24 24;" xml:space="preserve">
<style type="text/css">
	.st0{fill:#FFFFFF;}
</style>
<path class="st0" d="M22,1H2C0.9,1,0,1.9,0,3v18c0,1.1,0.9,2,2,2h20c1.1,0,2-0.9,2-2V3C24,1.9,23.1,1,22,1z M22,21H2V7h20V21z M2,6
	V3h20v3H2z M19.4,14.4l-4,4c-0.1,0.1-0.2,0.1-0.4,0.1s-0.3,0-0.4-0.1c-0.2-0.2-0.2-0.5,0-0.7l3.6-3.6l-3.6-3.6
	c-0.2-0.2-0.2-0.5,0-0.7c0.2-0.2,0.5-0.2,0.7,0l4,4C19.5,13.8,19.5,14.2,19.4,14.4z M9.4,17.6c0.2,0.2,0.2,0.5,0,0.7
	c-0.1,0.1-0.2,0.1-0.4,0.1s-0.3,0-0.4-0.1l-4-4c-0.2-0.2-0.2-0.5,0-0.7l4-4c0.2-0.2,0.5-0.2,0.7,0s0.2,0.5,0,0.7L5.7,14L9.4,17.6z
	 M11.3,18.5C11.3,18.5,11.2,18.5,11.3,18.5c-0.4-0.1-0.5-0.3-0.5-0.6l1.4-8c0-0.3,0.3-0.5,0.6-0.4c0.3,0,0.5,0.3,0.4,0.6l-1.4,8
	C11.8,18.3,11.5,18.5,11.3,18.5z M4,4.5C4,4.8,3.8,5,3.5,5S3,4.8,3,4.5S3.2,4,3.5,4S4,4.2,4,4.5z M6,4.5C6,4.8,5.8,5,5.5,5
	S5,4.8,5,4.5S5.2,4,5.5,4S6,4.2,6,4.5z M8,4.5C8,4.8,7.8,5,7.5,5S7,4.8,7,4.5S7.2,4,7.5,4S8,4.2,8,4.5z"/>
</svg>
