<?xml version="1.0" encoding="utf-8"?>
<!-- Generator: Adobe Illustrator 22.1.0, SVG Export Plug-In . SVG Version: 6.00 Build 0)  -->
<svg version="1.1" id="Layer_1" xmlns="http://www.w3.org/2000/svg" xmlns:xlink="http://www.w3.org/1999/xlink" x="0px" y="0px"
	 viewBox="0 0 24 24" style="enable-background:new 0 0 24 24;" xml:space="preserve">
<style type="text/css">
	.st0{display:none;fill:#FFFFFF;}
	.st1{fill:#FFFFFF;}
</style>
<path class="st0" d="M20.7,8.3c-0.4-0.4-1-0.4-1.4,0L12,15.6L4.7,8.3c-0.4-0.4-1-0.4-1.4,0c-0.4,0.4-0.4,1,0,1.4l8,8
	c0.2,0.2,0.5,0.3,0.7,0.3s0.5-0.1,0.7-0.3l8-8C21.1,9.3,21.1,8.7,20.7,8.3z"/>
<path class="st1" d="M18.1,9.3c-0.2,0-0.5,0-0.8,0.1c-0.5-1-1.5-1.1-2-1.1c-0.3,0-0.6,0.1-0.9,0.1c-0.4-0.6-1-1-1.9-1
	c0.8-0.8,1.4-1.9,1.4-3.1c0-2.4-1.9-4.3-4.3-4.3C7.2,0,5.3,1.9,5.3,4.3C5.3,5.8,6,7,7.2,7.8v4.5c-0.8-1-2.5-1.4-3.5-0.8
	c-0.5,0.3-0.9,0.9-1.1,1.6c-0.2,0.7,0,1.4,0.3,2c0.1,0.2,2.5,4.4,3.6,6.1c0,0,0,0.1,0.1,0.1c0.6,0.7,1.7,1.6,3.5,1.6h0.1
	c0.7,0,2.4,0,3.3,0c0.7,0,1.2,0,1.8,0c1.3,0,2.1,0,2.7-0.1c1.5-0.2,2.6-2.5,2.6-5.4v-5.2C20.5,9.5,18.8,9.3,18.1,9.3z M6.2,4.3
	C6.2,2.4,7.7,1,9.5,1c1.8,0,3.3,1.5,3.3,3.3c0,0.9-0.4,1.7-1,2.3V5.4c0-1.5-1.2-2.4-2.4-2.4S7.2,3.9,7.2,5.4v1.2
	C6.6,6,6.2,5.2,6.2,4.3z M18.6,17.3c0,2.3-0.8,3.4-1,3.5c-0.6,0.1-1.8,0.1-4.1,0.1c-0.9,0-2.7,0-3.4,0H10c-0.8,0-1.5-0.3-2-0.8
	c-1.1-1.7-3.5-5.9-3.6-6c-0.1-0.1-0.1-0.3-0.1-0.6c0-0.2,0.1-0.4,0.3-0.4c0,0,0.1,0,0.1,0c0.3,0,0.7,0.2,0.9,0.5l1.6,2.4
	c0.2,0.4,0.7,0.5,1.1,0.4C8.8,16.2,9,15.8,9,15.4v-10c0-0.4,0.5-0.4,0.5-0.4c0,0,0.5,0,0.5,0.5v6.2c0,0.5,0.4,1,0.9,1s1-0.4,1-1V9.8
	c0,0,0-0.5,0.5-0.5c0.5,0,0.5,0.5,0.5,0.5v1.8c0,0.5,0.4,1,0.9,1s1-0.4,1-1v-0.9c0-0.6,0.3-0.6,0.5-0.6c0.2,0,0.5,0,0.5,1v1
	c0,0.5,0.4,1,0.9,1s1-0.4,1-1c0-1,0.2-1,0.5-1c0.2,0,0.5,0,0.5,1V17.3z"/>
</svg>
