<svg id="Layer_1" data-name="Layer 1" xmlns="http://www.w3.org/2000/svg" viewBox="0 0 24 24"><path d="M22.2741,16.9789v4.2034l-6.46-6.6636-.6276.6474,6.3975,6.5995h-3.95a.458.458,0,0,0,0,.9155h5.0212a.4354.4354,0,0,0,.3138-.1341c.0107-.011.0157-.0266.0253-.0387a.4474.4474,0,0,0,.0375-.0261.463.463,0,0,0,.13-.3237v-5.18a.444.444,0,1,0-.8875,0ZM11.5068,15.5454V11.342l6.46,6.6636.6276-.6475-6.3975-6.5994h3.95a.458.458,0,0,0,0-.9155H11.1259a.4358.4358,0,0,0-.3139.134c-.0106.011-.0157.0266-.0253.0388a.4464.4464,0,0,0-.0375.026.4632.4632,0,0,0-.13.3237v5.18a.444.444,0,1,0,.8875,0Z" style="fill:#fff;stroke:#fff;stroke-miterlimit:10"/><path d="M14.0154,17.5736H2.0282V2.4708H18.2V13.59l1.6172,1.6682V1.7256a.8214.8214,0,0,0-.8086-.834H1.22a.8214.8214,0,0,0-.8086.834V18.4077a.8215.8215,0,0,0,.8086.8341h14.413ZM2.0282,2.56H18.2v-.923H2.0282Z" style="fill:#fff"/></svg>